<mxfile host="app.diagrams.net" agent="Mozilla/5.0 (Windows NT 10.0; Win64; x64) AppleWebKit/537.36 (KHTML, like Gecko) Chrome/132.0.0.0 Safari/537.36" version="26.0.10" pages="4">
  <diagram name="Page-1" id="jLtEsrD5bbVMdI0_Jp3P">
    <mxGraphModel dx="880" dy="468" grid="1" gridSize="10" guides="1" tooltips="1" connect="1" arrows="1" fold="1" page="1" pageScale="1" pageWidth="850" pageHeight="1100" math="0" shadow="0">
      <root>
        <mxCell id="0" />
        <mxCell id="1" parent="0" />
        <mxCell id="_hPpP1x5KGNEwNmz4fsg-4" style="edgeStyle=orthogonalEdgeStyle;rounded=0;orthogonalLoop=1;jettySize=auto;html=1;entryX=0.5;entryY=1;entryDx=0;entryDy=0;endArrow=none;startFill=0;" parent="1" source="_hPpP1x5KGNEwNmz4fsg-1" target="_hPpP1x5KGNEwNmz4fsg-3" edge="1">
          <mxGeometry relative="1" as="geometry">
            <Array as="points">
              <mxPoint x="330" y="265" />
              <mxPoint x="385" y="265" />
            </Array>
          </mxGeometry>
        </mxCell>
        <mxCell id="_hPpP1x5KGNEwNmz4fsg-6" style="edgeStyle=orthogonalEdgeStyle;rounded=0;orthogonalLoop=1;jettySize=auto;html=1;entryX=0.5;entryY=1;entryDx=0;entryDy=0;endArrow=none;startFill=0;" parent="1" source="_hPpP1x5KGNEwNmz4fsg-1" target="_hPpP1x5KGNEwNmz4fsg-5" edge="1">
          <mxGeometry relative="1" as="geometry" />
        </mxCell>
        <mxCell id="_hPpP1x5KGNEwNmz4fsg-10" style="edgeStyle=orthogonalEdgeStyle;rounded=0;orthogonalLoop=1;jettySize=auto;html=1;entryX=0.5;entryY=0;entryDx=0;entryDy=0;endArrow=none;startFill=0;" parent="1" source="_hPpP1x5KGNEwNmz4fsg-1" target="_hPpP1x5KGNEwNmz4fsg-7" edge="1">
          <mxGeometry relative="1" as="geometry" />
        </mxCell>
        <mxCell id="_hPpP1x5KGNEwNmz4fsg-34" style="edgeStyle=orthogonalEdgeStyle;rounded=0;orthogonalLoop=1;jettySize=auto;html=1;entryX=0.5;entryY=1;entryDx=0;entryDy=0;endArrow=none;startFill=0;" parent="1" source="_hPpP1x5KGNEwNmz4fsg-1" target="_hPpP1x5KGNEwNmz4fsg-33" edge="1">
          <mxGeometry relative="1" as="geometry" />
        </mxCell>
        <mxCell id="_hPpP1x5KGNEwNmz4fsg-1" value="Event" style="whiteSpace=wrap;html=1;align=center;" parent="1" vertex="1">
          <mxGeometry x="290" y="320" width="90" height="40" as="geometry" />
        </mxCell>
        <mxCell id="_hPpP1x5KGNEwNmz4fsg-3" value="Event&amp;nbsp;&lt;u&gt;ID&lt;/u&gt;" style="ellipse;whiteSpace=wrap;html=1;align=center;" parent="1" vertex="1">
          <mxGeometry x="350" y="200" width="100" height="40" as="geometry" />
        </mxCell>
        <mxCell id="_hPpP1x5KGNEwNmz4fsg-5" value="&lt;div&gt;Destination&lt;/div&gt;" style="ellipse;whiteSpace=wrap;html=1;align=center;" parent="1" vertex="1">
          <mxGeometry x="160" y="250" width="100" height="40" as="geometry" />
        </mxCell>
        <mxCell id="_hPpP1x5KGNEwNmz4fsg-7" value="Location" style="ellipse;whiteSpace=wrap;html=1;align=center;" parent="1" vertex="1">
          <mxGeometry x="285" y="580" width="100" height="40" as="geometry" />
        </mxCell>
        <mxCell id="_hPpP1x5KGNEwNmz4fsg-12" style="edgeStyle=orthogonalEdgeStyle;rounded=0;orthogonalLoop=1;jettySize=auto;html=1;endArrow=none;startFill=0;" parent="1" source="_hPpP1x5KGNEwNmz4fsg-11" target="_hPpP1x5KGNEwNmz4fsg-1" edge="1">
          <mxGeometry relative="1" as="geometry" />
        </mxCell>
        <mxCell id="_hPpP1x5KGNEwNmz4fsg-11" value="End Time" style="ellipse;whiteSpace=wrap;html=1;align=center;" parent="1" vertex="1">
          <mxGeometry x="520" y="360" width="100" height="40" as="geometry" />
        </mxCell>
        <mxCell id="_hPpP1x5KGNEwNmz4fsg-33" value="Start Time" style="ellipse;whiteSpace=wrap;html=1;align=center;" parent="1" vertex="1">
          <mxGeometry x="470" y="230" width="100" height="40" as="geometry" />
        </mxCell>
        <mxCell id="_hPpP1x5KGNEwNmz4fsg-78" style="edgeStyle=orthogonalEdgeStyle;rounded=0;orthogonalLoop=1;jettySize=auto;html=1;entryX=0.5;entryY=1;entryDx=0;entryDy=0;endArrow=none;startFill=0;" parent="1" source="_hPpP1x5KGNEwNmz4fsg-77" target="_hPpP1x5KGNEwNmz4fsg-1" edge="1">
          <mxGeometry relative="1" as="geometry" />
        </mxCell>
        <mxCell id="_hPpP1x5KGNEwNmz4fsg-77" value="Type" style="ellipse;whiteSpace=wrap;html=1;align=center;" parent="1" vertex="1">
          <mxGeometry x="170" y="450" width="100" height="40" as="geometry" />
        </mxCell>
        <mxCell id="_hPpP1x5KGNEwNmz4fsg-80" style="edgeStyle=orthogonalEdgeStyle;rounded=0;orthogonalLoop=1;jettySize=auto;html=1;entryX=0.5;entryY=1;entryDx=0;entryDy=0;endArrow=none;startFill=0;" parent="1" source="_hPpP1x5KGNEwNmz4fsg-79" target="_hPpP1x5KGNEwNmz4fsg-1" edge="1">
          <mxGeometry relative="1" as="geometry" />
        </mxCell>
        <mxCell id="_hPpP1x5KGNEwNmz4fsg-79" value="&lt;div&gt;Event Date&lt;/div&gt;" style="ellipse;whiteSpace=wrap;html=1;align=center;" parent="1" vertex="1">
          <mxGeometry x="80" y="370" width="100" height="40" as="geometry" />
        </mxCell>
        <mxCell id="_hPpP1x5KGNEwNmz4fsg-82" style="edgeStyle=orthogonalEdgeStyle;rounded=0;orthogonalLoop=1;jettySize=auto;html=1;entryX=0.75;entryY=1;entryDx=0;entryDy=0;endArrow=none;startFill=0;" parent="1" source="_hPpP1x5KGNEwNmz4fsg-81" target="_hPpP1x5KGNEwNmz4fsg-1" edge="1">
          <mxGeometry relative="1" as="geometry" />
        </mxCell>
        <mxCell id="_hPpP1x5KGNEwNmz4fsg-81" value="Resource Requirement" style="ellipse;whiteSpace=wrap;html=1;align=center;" parent="1" vertex="1">
          <mxGeometry x="490" y="430" width="100" height="40" as="geometry" />
        </mxCell>
      </root>
    </mxGraphModel>
  </diagram>
  <diagram id="xW_6rSMzqBG5l2Te2S_-" name="Page-2">
    <mxGraphModel dx="880" dy="1568" grid="1" gridSize="10" guides="1" tooltips="1" connect="1" arrows="1" fold="1" page="1" pageScale="1" pageWidth="850" pageHeight="1100" math="0" shadow="0">
      <root>
        <mxCell id="0" />
        <mxCell id="1" parent="0" />
        <mxCell id="i2mhGF5Ou8PGs9x8ljhA-6" style="edgeStyle=orthogonalEdgeStyle;rounded=0;orthogonalLoop=1;jettySize=auto;html=1;exitX=0.25;exitY=0;exitDx=0;exitDy=0;entryX=0.5;entryY=1;entryDx=0;entryDy=0;endArrow=none;startFill=0;" edge="1" parent="1" source="i2mhGF5Ou8PGs9x8ljhA-1" target="i2mhGF5Ou8PGs9x8ljhA-3">
          <mxGeometry relative="1" as="geometry" />
        </mxCell>
        <mxCell id="i2mhGF5Ou8PGs9x8ljhA-7" style="edgeStyle=orthogonalEdgeStyle;rounded=0;orthogonalLoop=1;jettySize=auto;html=1;exitX=0.5;exitY=0;exitDx=0;exitDy=0;entryX=0.5;entryY=1;entryDx=0;entryDy=0;endArrow=none;startFill=0;" edge="1" parent="1" source="i2mhGF5Ou8PGs9x8ljhA-1" target="i2mhGF5Ou8PGs9x8ljhA-4">
          <mxGeometry relative="1" as="geometry" />
        </mxCell>
        <mxCell id="i2mhGF5Ou8PGs9x8ljhA-8" style="edgeStyle=orthogonalEdgeStyle;rounded=0;orthogonalLoop=1;jettySize=auto;html=1;exitX=0;exitY=0.5;exitDx=0;exitDy=0;endArrow=none;startFill=0;" edge="1" parent="1" source="i2mhGF5Ou8PGs9x8ljhA-1" target="i2mhGF5Ou8PGs9x8ljhA-5">
          <mxGeometry relative="1" as="geometry" />
        </mxCell>
        <mxCell id="i2mhGF5Ou8PGs9x8ljhA-13" style="edgeStyle=orthogonalEdgeStyle;rounded=0;orthogonalLoop=1;jettySize=auto;html=1;exitX=0.25;exitY=1;exitDx=0;exitDy=0;endArrow=none;startFill=0;" edge="1" parent="1" source="i2mhGF5Ou8PGs9x8ljhA-1" target="i2mhGF5Ou8PGs9x8ljhA-12">
          <mxGeometry relative="1" as="geometry" />
        </mxCell>
        <mxCell id="i2mhGF5Ou8PGs9x8ljhA-1" value="Students" style="whiteSpace=wrap;html=1;align=center;" vertex="1" parent="1">
          <mxGeometry x="250" y="-260" width="100" height="40" as="geometry" />
        </mxCell>
        <mxCell id="i2mhGF5Ou8PGs9x8ljhA-15" style="edgeStyle=orthogonalEdgeStyle;rounded=0;orthogonalLoop=1;jettySize=auto;html=1;exitX=0.5;exitY=0;exitDx=0;exitDy=0;entryX=0.5;entryY=1;entryDx=0;entryDy=0;endArrow=none;startFill=0;" edge="1" parent="1" source="i2mhGF5Ou8PGs9x8ljhA-2" target="i2mhGF5Ou8PGs9x8ljhA-9">
          <mxGeometry relative="1" as="geometry" />
        </mxCell>
        <mxCell id="i2mhGF5Ou8PGs9x8ljhA-17" value="" style="edgeStyle=orthogonalEdgeStyle;rounded=0;orthogonalLoop=1;jettySize=auto;html=1;endArrow=none;startFill=0;" edge="1" parent="1" source="i2mhGF5Ou8PGs9x8ljhA-2" target="i2mhGF5Ou8PGs9x8ljhA-11">
          <mxGeometry relative="1" as="geometry" />
        </mxCell>
        <mxCell id="i2mhGF5Ou8PGs9x8ljhA-18" style="edgeStyle=orthogonalEdgeStyle;rounded=0;orthogonalLoop=1;jettySize=auto;html=1;exitX=1;exitY=1;exitDx=0;exitDy=0;entryX=0;entryY=0.5;entryDx=0;entryDy=0;endArrow=none;startFill=0;" edge="1" parent="1" source="i2mhGF5Ou8PGs9x8ljhA-2" target="i2mhGF5Ou8PGs9x8ljhA-14">
          <mxGeometry relative="1" as="geometry" />
        </mxCell>
        <mxCell id="i2mhGF5Ou8PGs9x8ljhA-2" value="Courses&amp;nbsp;" style="whiteSpace=wrap;html=1;align=center;" vertex="1" parent="1">
          <mxGeometry x="460" y="-260" width="100" height="50" as="geometry" />
        </mxCell>
        <mxCell id="i2mhGF5Ou8PGs9x8ljhA-3" value="Name&amp;nbsp;" style="ellipse;whiteSpace=wrap;html=1;align=center;" vertex="1" parent="1">
          <mxGeometry x="130" y="-370" width="100" height="40" as="geometry" />
        </mxCell>
        <mxCell id="i2mhGF5Ou8PGs9x8ljhA-4" value="DOB" style="ellipse;whiteSpace=wrap;html=1;align=center;" vertex="1" parent="1">
          <mxGeometry x="260" y="-380" width="100" height="40" as="geometry" />
        </mxCell>
        <mxCell id="i2mhGF5Ou8PGs9x8ljhA-5" value="program, enrolled&amp;nbsp;" style="ellipse;whiteSpace=wrap;html=1;align=center;" vertex="1" parent="1">
          <mxGeometry x="80" y="-260" width="100" height="40" as="geometry" />
        </mxCell>
        <mxCell id="i2mhGF5Ou8PGs9x8ljhA-9" value="Course code&amp;nbsp;" style="ellipse;whiteSpace=wrap;html=1;align=center;fontStyle=4" vertex="1" parent="1">
          <mxGeometry x="460" y="-360" width="100" height="40" as="geometry" />
        </mxCell>
        <mxCell id="i2mhGF5Ou8PGs9x8ljhA-10" value="Course Name&amp;nbsp;" style="ellipse;whiteSpace=wrap;html=1;align=center;" vertex="1" parent="1">
          <mxGeometry x="580" y="-370" width="100" height="40" as="geometry" />
        </mxCell>
        <mxCell id="i2mhGF5Ou8PGs9x8ljhA-11" value="CREDIT&amp;nbsp;" style="ellipse;whiteSpace=wrap;html=1;align=center;" vertex="1" parent="1">
          <mxGeometry x="620" y="-290" width="100" height="40" as="geometry" />
        </mxCell>
        <mxCell id="i2mhGF5Ou8PGs9x8ljhA-12" value="&lt;u&gt;Student ID&amp;nbsp;&lt;/u&gt;" style="ellipse;whiteSpace=wrap;html=1;align=center;" vertex="1" parent="1">
          <mxGeometry x="160" y="-150" width="100" height="40" as="geometry" />
        </mxCell>
        <mxCell id="i2mhGF5Ou8PGs9x8ljhA-14" value="Instructor" style="ellipse;whiteSpace=wrap;html=1;align=center;" vertex="1" parent="1">
          <mxGeometry x="620" y="-190" width="100" height="40" as="geometry" />
        </mxCell>
        <mxCell id="i2mhGF5Ou8PGs9x8ljhA-16" style="edgeStyle=orthogonalEdgeStyle;rounded=0;orthogonalLoop=1;jettySize=auto;html=1;exitX=1;exitY=0;exitDx=0;exitDy=0;entryX=0.38;entryY=1.05;entryDx=0;entryDy=0;entryPerimeter=0;endArrow=none;startFill=0;" edge="1" parent="1" source="i2mhGF5Ou8PGs9x8ljhA-2" target="i2mhGF5Ou8PGs9x8ljhA-10">
          <mxGeometry relative="1" as="geometry" />
        </mxCell>
      </root>
    </mxGraphModel>
  </diagram>
  <diagram id="GySqCj4Al_hFCmeNnDxv" name="Page-3">
    <mxGraphModel dx="880" dy="468" grid="1" gridSize="10" guides="1" tooltips="1" connect="1" arrows="1" fold="1" page="1" pageScale="1" pageWidth="850" pageHeight="1100" math="0" shadow="0">
      <root>
        <mxCell id="0" />
        <mxCell id="1" parent="0" />
        <mxCell id="0rH-dLr79A3BfiNWrBxd-1" value="Patients&amp;nbsp;" style="whiteSpace=wrap;html=1;align=center;" vertex="1" parent="1">
          <mxGeometry x="170" y="200" width="100" height="40" as="geometry" />
        </mxCell>
        <mxCell id="LwfVSeKBWooUPOZBFfKQ-16" style="edgeStyle=orthogonalEdgeStyle;rounded=0;orthogonalLoop=1;jettySize=auto;html=1;exitX=0.5;exitY=0;exitDx=0;exitDy=0;entryX=0.5;entryY=1;entryDx=0;entryDy=0;endArrow=none;startFill=0;" edge="1" parent="1" source="UaqCe0fLroTgnNRUrXxv-1" target="LwfVSeKBWooUPOZBFfKQ-4">
          <mxGeometry relative="1" as="geometry" />
        </mxCell>
        <mxCell id="LwfVSeKBWooUPOZBFfKQ-17" style="edgeStyle=orthogonalEdgeStyle;rounded=0;orthogonalLoop=1;jettySize=auto;html=1;exitX=1;exitY=0.25;exitDx=0;exitDy=0;entryX=0;entryY=1;entryDx=0;entryDy=0;endArrow=none;startFill=0;" edge="1" parent="1" source="UaqCe0fLroTgnNRUrXxv-1" target="LwfVSeKBWooUPOZBFfKQ-5">
          <mxGeometry relative="1" as="geometry" />
        </mxCell>
        <mxCell id="UaqCe0fLroTgnNRUrXxv-1" value="Doctor&amp;nbsp;" style="whiteSpace=wrap;html=1;align=center;" vertex="1" parent="1">
          <mxGeometry x="510" y="210" width="100" height="30" as="geometry" />
        </mxCell>
        <mxCell id="LwfVSeKBWooUPOZBFfKQ-1" value="Patient ID&amp;nbsp;" style="ellipse;whiteSpace=wrap;html=1;align=center;" vertex="1" parent="1">
          <mxGeometry x="50" y="110" width="100" height="40" as="geometry" />
        </mxCell>
        <mxCell id="LwfVSeKBWooUPOZBFfKQ-2" value="Name&amp;nbsp;" style="ellipse;whiteSpace=wrap;html=1;align=center;" vertex="1" parent="1">
          <mxGeometry x="180" y="110" width="100" height="40" as="geometry" />
        </mxCell>
        <mxCell id="LwfVSeKBWooUPOZBFfKQ-3" value="Age&amp;nbsp;" style="ellipse;whiteSpace=wrap;html=1;align=center;" vertex="1" parent="1">
          <mxGeometry x="310" y="120" width="100" height="40" as="geometry" />
        </mxCell>
        <mxCell id="LwfVSeKBWooUPOZBFfKQ-4" value="Name&amp;nbsp;" style="ellipse;whiteSpace=wrap;html=1;align=center;" vertex="1" parent="1">
          <mxGeometry x="510" y="110" width="100" height="40" as="geometry" />
        </mxCell>
        <mxCell id="LwfVSeKBWooUPOZBFfKQ-5" value="Specilization&amp;nbsp;" style="ellipse;whiteSpace=wrap;html=1;align=center;" vertex="1" parent="1">
          <mxGeometry x="710" y="130" width="100" height="40" as="geometry" />
        </mxCell>
        <mxCell id="LwfVSeKBWooUPOZBFfKQ-6" value="Contact Information" style="ellipse;whiteSpace=wrap;html=1;align=center;" vertex="1" parent="1">
          <mxGeometry x="700" y="230" width="100" height="40" as="geometry" />
        </mxCell>
        <mxCell id="LwfVSeKBWooUPOZBFfKQ-7" value="Gender&amp;nbsp;" style="ellipse;whiteSpace=wrap;html=1;align=center;" vertex="1" parent="1">
          <mxGeometry x="30" y="200" width="100" height="40" as="geometry" />
        </mxCell>
        <mxCell id="LwfVSeKBWooUPOZBFfKQ-8" value="Medical History&amp;nbsp;" style="ellipse;whiteSpace=wrap;html=1;align=center;" vertex="1" parent="1">
          <mxGeometry x="150" y="290" width="100" height="40" as="geometry" />
        </mxCell>
        <mxCell id="LwfVSeKBWooUPOZBFfKQ-9" value="Avaliability&amp;nbsp;" style="ellipse;whiteSpace=wrap;html=1;align=center;" vertex="1" parent="1">
          <mxGeometry x="480" y="280" width="100" height="40" as="geometry" />
        </mxCell>
        <mxCell id="LwfVSeKBWooUPOZBFfKQ-10" style="edgeStyle=orthogonalEdgeStyle;rounded=0;orthogonalLoop=1;jettySize=auto;html=1;exitX=0;exitY=0.25;exitDx=0;exitDy=0;entryX=0.91;entryY=0.7;entryDx=0;entryDy=0;entryPerimeter=0;endArrow=none;startFill=0;" edge="1" parent="1" source="0rH-dLr79A3BfiNWrBxd-1" target="LwfVSeKBWooUPOZBFfKQ-7">
          <mxGeometry relative="1" as="geometry" />
        </mxCell>
        <mxCell id="LwfVSeKBWooUPOZBFfKQ-11" style="edgeStyle=orthogonalEdgeStyle;rounded=0;orthogonalLoop=1;jettySize=auto;html=1;exitX=0.25;exitY=0;exitDx=0;exitDy=0;entryX=0.62;entryY=0.95;entryDx=0;entryDy=0;entryPerimeter=0;endArrow=none;startFill=0;" edge="1" parent="1" source="0rH-dLr79A3BfiNWrBxd-1" target="LwfVSeKBWooUPOZBFfKQ-1">
          <mxGeometry relative="1" as="geometry" />
        </mxCell>
        <mxCell id="LwfVSeKBWooUPOZBFfKQ-12" style="edgeStyle=orthogonalEdgeStyle;rounded=0;orthogonalLoop=1;jettySize=auto;html=1;exitX=0.5;exitY=0;exitDx=0;exitDy=0;entryX=0.4;entryY=1;entryDx=0;entryDy=0;entryPerimeter=0;endArrow=none;startFill=0;" edge="1" parent="1" source="0rH-dLr79A3BfiNWrBxd-1" target="LwfVSeKBWooUPOZBFfKQ-2">
          <mxGeometry relative="1" as="geometry" />
        </mxCell>
        <mxCell id="LwfVSeKBWooUPOZBFfKQ-13" style="edgeStyle=orthogonalEdgeStyle;rounded=0;orthogonalLoop=1;jettySize=auto;html=1;exitX=0.75;exitY=0;exitDx=0;exitDy=0;entryX=0.34;entryY=1.025;entryDx=0;entryDy=0;entryPerimeter=0;endArrow=none;startFill=0;" edge="1" parent="1" source="0rH-dLr79A3BfiNWrBxd-1" target="LwfVSeKBWooUPOZBFfKQ-3">
          <mxGeometry relative="1" as="geometry" />
        </mxCell>
        <mxCell id="LwfVSeKBWooUPOZBFfKQ-14" style="edgeStyle=orthogonalEdgeStyle;rounded=0;orthogonalLoop=1;jettySize=auto;html=1;exitX=0.5;exitY=1;exitDx=0;exitDy=0;entryX=0.67;entryY=0.05;entryDx=0;entryDy=0;entryPerimeter=0;endArrow=none;startFill=0;" edge="1" parent="1" source="0rH-dLr79A3BfiNWrBxd-1" target="LwfVSeKBWooUPOZBFfKQ-8">
          <mxGeometry relative="1" as="geometry" />
        </mxCell>
        <mxCell id="LwfVSeKBWooUPOZBFfKQ-15" style="edgeStyle=orthogonalEdgeStyle;rounded=0;orthogonalLoop=1;jettySize=auto;html=1;exitX=0.5;exitY=1;exitDx=0;exitDy=0;entryX=0.65;entryY=0.05;entryDx=0;entryDy=0;entryPerimeter=0;endArrow=none;startFill=0;" edge="1" parent="1" source="UaqCe0fLroTgnNRUrXxv-1" target="LwfVSeKBWooUPOZBFfKQ-9">
          <mxGeometry relative="1" as="geometry" />
        </mxCell>
        <mxCell id="LwfVSeKBWooUPOZBFfKQ-18" style="edgeStyle=orthogonalEdgeStyle;rounded=0;orthogonalLoop=1;jettySize=auto;html=1;exitX=1;exitY=1;exitDx=0;exitDy=0;entryX=0.03;entryY=0.3;entryDx=0;entryDy=0;entryPerimeter=0;endArrow=none;startFill=0;" edge="1" parent="1" source="UaqCe0fLroTgnNRUrXxv-1" target="LwfVSeKBWooUPOZBFfKQ-6">
          <mxGeometry relative="1" as="geometry" />
        </mxCell>
      </root>
    </mxGraphModel>
  </diagram>
  <diagram id="HwT4oy8XX9pglZ_DoOOW" name="Page-4">
    <mxGraphModel dx="880" dy="468" grid="1" gridSize="10" guides="1" tooltips="1" connect="1" arrows="1" fold="1" page="1" pageScale="1" pageWidth="850" pageHeight="1100" math="0" shadow="0">
      <root>
        <mxCell id="0" />
        <mxCell id="1" parent="0" />
        <mxCell id="bWrE1PhXwlzSD_DR4PVm-8" style="edgeStyle=orthogonalEdgeStyle;rounded=0;orthogonalLoop=1;jettySize=auto;html=1;exitX=0.25;exitY=0;exitDx=0;exitDy=0;entryX=0.5;entryY=1;entryDx=0;entryDy=0;endArrow=none;startFill=0;" edge="1" parent="1" source="b16SQjrXJFUjHFu2ksD_-1" target="bWrE1PhXwlzSD_DR4PVm-4">
          <mxGeometry relative="1" as="geometry" />
        </mxCell>
        <mxCell id="bWrE1PhXwlzSD_DR4PVm-9" style="edgeStyle=orthogonalEdgeStyle;rounded=0;orthogonalLoop=1;jettySize=auto;html=1;exitX=0.75;exitY=0;exitDx=0;exitDy=0;entryX=0.5;entryY=1;entryDx=0;entryDy=0;endArrow=none;startFill=0;" edge="1" parent="1" source="b16SQjrXJFUjHFu2ksD_-1" target="bWrE1PhXwlzSD_DR4PVm-6">
          <mxGeometry relative="1" as="geometry" />
        </mxCell>
        <mxCell id="bWrE1PhXwlzSD_DR4PVm-10" style="edgeStyle=orthogonalEdgeStyle;rounded=0;orthogonalLoop=1;jettySize=auto;html=1;exitX=0.25;exitY=1;exitDx=0;exitDy=0;entryX=1;entryY=0;entryDx=0;entryDy=0;endArrow=none;startFill=0;" edge="1" parent="1" source="b16SQjrXJFUjHFu2ksD_-1" target="bWrE1PhXwlzSD_DR4PVm-7">
          <mxGeometry relative="1" as="geometry" />
        </mxCell>
        <mxCell id="bWrE1PhXwlzSD_DR4PVm-23" style="edgeStyle=orthogonalEdgeStyle;rounded=0;orthogonalLoop=1;jettySize=auto;html=1;exitX=0;exitY=0.5;exitDx=0;exitDy=0;entryX=1;entryY=0.5;entryDx=0;entryDy=0;endArrow=none;startFill=0;" edge="1" parent="1" source="b16SQjrXJFUjHFu2ksD_-1" target="bWrE1PhXwlzSD_DR4PVm-22">
          <mxGeometry relative="1" as="geometry" />
        </mxCell>
        <mxCell id="b16SQjrXJFUjHFu2ksD_-1" value="Delivery&amp;nbsp;" style="whiteSpace=wrap;html=1;align=center;" vertex="1" parent="1">
          <mxGeometry x="375" y="200" width="100" height="40" as="geometry" />
        </mxCell>
        <mxCell id="bWrE1PhXwlzSD_DR4PVm-16" style="edgeStyle=orthogonalEdgeStyle;rounded=0;orthogonalLoop=1;jettySize=auto;html=1;exitX=0.75;exitY=0;exitDx=0;exitDy=0;entryX=0.5;entryY=1;entryDx=0;entryDy=0;endArrow=none;startFill=0;" edge="1" parent="1" source="bWrE1PhXwlzSD_DR4PVm-2" target="bWrE1PhXwlzSD_DR4PVm-14">
          <mxGeometry relative="1" as="geometry" />
        </mxCell>
        <mxCell id="xcjLsUMatvyhc2eLWBcs-3" style="edgeStyle=orthogonalEdgeStyle;rounded=0;orthogonalLoop=1;jettySize=auto;html=1;exitX=0.25;exitY=1;exitDx=0;exitDy=0;endArrow=none;startFill=0;" edge="1" parent="1" source="bWrE1PhXwlzSD_DR4PVm-2" target="xcjLsUMatvyhc2eLWBcs-1">
          <mxGeometry relative="1" as="geometry" />
        </mxCell>
        <mxCell id="xcjLsUMatvyhc2eLWBcs-4" style="edgeStyle=orthogonalEdgeStyle;rounded=0;orthogonalLoop=1;jettySize=auto;html=1;exitX=0.75;exitY=1;exitDx=0;exitDy=0;entryX=0.5;entryY=0;entryDx=0;entryDy=0;endArrow=none;startFill=0;" edge="1" parent="1" source="bWrE1PhXwlzSD_DR4PVm-2" target="xcjLsUMatvyhc2eLWBcs-2">
          <mxGeometry relative="1" as="geometry" />
        </mxCell>
        <mxCell id="bWrE1PhXwlzSD_DR4PVm-2" value="Location&amp;nbsp;" style="whiteSpace=wrap;html=1;align=center;" vertex="1" parent="1">
          <mxGeometry x="60" y="230" width="100" height="40" as="geometry" />
        </mxCell>
        <mxCell id="bWrE1PhXwlzSD_DR4PVm-3" value="Vechile ID&amp;nbsp;" style="whiteSpace=wrap;html=1;align=center;" vertex="1" parent="1">
          <mxGeometry x="640" y="200" width="100" height="40" as="geometry" />
        </mxCell>
        <mxCell id="bWrE1PhXwlzSD_DR4PVm-4" value="Trackind ID&amp;nbsp;" style="ellipse;whiteSpace=wrap;html=1;align=center;" vertex="1" parent="1">
          <mxGeometry x="300" y="90" width="100" height="40" as="geometry" />
        </mxCell>
        <mxCell id="bWrE1PhXwlzSD_DR4PVm-6" value="data&amp;nbsp;" style="ellipse;whiteSpace=wrap;html=1;align=center;" vertex="1" parent="1">
          <mxGeometry x="410" y="90" width="100" height="40" as="geometry" />
        </mxCell>
        <mxCell id="bWrE1PhXwlzSD_DR4PVm-7" value="Delivery Status&amp;nbsp;" style="ellipse;whiteSpace=wrap;html=1;align=center;" vertex="1" parent="1">
          <mxGeometry x="300" y="290" width="100" height="40" as="geometry" />
        </mxCell>
        <mxCell id="bWrE1PhXwlzSD_DR4PVm-11" value="time&amp;nbsp;" style="ellipse;whiteSpace=wrap;html=1;align=center;" vertex="1" parent="1">
          <mxGeometry x="440" y="280" width="100" height="40" as="geometry" />
        </mxCell>
        <mxCell id="bWrE1PhXwlzSD_DR4PVm-12" style="edgeStyle=orthogonalEdgeStyle;rounded=0;orthogonalLoop=1;jettySize=auto;html=1;exitX=0.75;exitY=1;exitDx=0;exitDy=0;entryX=0.41;entryY=0.125;entryDx=0;entryDy=0;entryPerimeter=0;endArrow=none;startFill=0;" edge="1" parent="1" source="b16SQjrXJFUjHFu2ksD_-1" target="bWrE1PhXwlzSD_DR4PVm-11">
          <mxGeometry relative="1" as="geometry" />
        </mxCell>
        <mxCell id="bWrE1PhXwlzSD_DR4PVm-13" value="pickup point&amp;nbsp;" style="ellipse;whiteSpace=wrap;html=1;align=center;" vertex="1" parent="1">
          <mxGeometry x="20" y="100" width="100" height="40" as="geometry" />
        </mxCell>
        <mxCell id="bWrE1PhXwlzSD_DR4PVm-14" value="delivery Distination&amp;nbsp;" style="ellipse;whiteSpace=wrap;html=1;align=center;" vertex="1" parent="1">
          <mxGeometry x="170" y="100" width="100" height="40" as="geometry" />
        </mxCell>
        <mxCell id="bWrE1PhXwlzSD_DR4PVm-17" style="edgeStyle=orthogonalEdgeStyle;rounded=0;orthogonalLoop=1;jettySize=auto;html=1;exitX=0;exitY=0.25;exitDx=0;exitDy=0;entryX=0.66;entryY=1;entryDx=0;entryDy=0;entryPerimeter=0;endArrow=none;startFill=0;" edge="1" parent="1" source="bWrE1PhXwlzSD_DR4PVm-2" target="bWrE1PhXwlzSD_DR4PVm-13">
          <mxGeometry relative="1" as="geometry" />
        </mxCell>
        <mxCell id="bWrE1PhXwlzSD_DR4PVm-18" value="Avalability&amp;nbsp;" style="ellipse;whiteSpace=wrap;html=1;align=center;" vertex="1" parent="1">
          <mxGeometry x="580" y="80" width="100" height="40" as="geometry" />
        </mxCell>
        <mxCell id="bWrE1PhXwlzSD_DR4PVm-19" value="Capicity&amp;nbsp;" style="ellipse;whiteSpace=wrap;html=1;align=center;" vertex="1" parent="1">
          <mxGeometry x="730" y="80" width="100" height="40" as="geometry" />
        </mxCell>
        <mxCell id="bWrE1PhXwlzSD_DR4PVm-20" style="edgeStyle=orthogonalEdgeStyle;rounded=0;orthogonalLoop=1;jettySize=auto;html=1;exitX=0.25;exitY=0;exitDx=0;exitDy=0;entryX=0.62;entryY=1.025;entryDx=0;entryDy=0;entryPerimeter=0;endArrow=none;startFill=0;" edge="1" parent="1" source="bWrE1PhXwlzSD_DR4PVm-3" target="bWrE1PhXwlzSD_DR4PVm-18">
          <mxGeometry relative="1" as="geometry" />
        </mxCell>
        <mxCell id="bWrE1PhXwlzSD_DR4PVm-21" style="edgeStyle=orthogonalEdgeStyle;rounded=0;orthogonalLoop=1;jettySize=auto;html=1;exitX=1;exitY=0.25;exitDx=0;exitDy=0;entryX=0.3;entryY=1;entryDx=0;entryDy=0;entryPerimeter=0;endArrow=none;startFill=0;" edge="1" parent="1" source="bWrE1PhXwlzSD_DR4PVm-3" target="bWrE1PhXwlzSD_DR4PVm-19">
          <mxGeometry relative="1" as="geometry" />
        </mxCell>
        <mxCell id="bWrE1PhXwlzSD_DR4PVm-22" value="Quantity&amp;nbsp;" style="ellipse;whiteSpace=wrap;html=1;align=center;" vertex="1" parent="1">
          <mxGeometry x="240" y="200" width="100" height="40" as="geometry" />
        </mxCell>
        <mxCell id="xcjLsUMatvyhc2eLWBcs-1" value="Longitude&amp;nbsp;" style="ellipse;whiteSpace=wrap;html=1;align=center;" vertex="1" parent="1">
          <mxGeometry y="350" width="100" height="40" as="geometry" />
        </mxCell>
        <mxCell id="xcjLsUMatvyhc2eLWBcs-2" value="Latidues" style="ellipse;whiteSpace=wrap;html=1;align=center;" vertex="1" parent="1">
          <mxGeometry x="160" y="350" width="100" height="40" as="geometry" />
        </mxCell>
      </root>
    </mxGraphModel>
  </diagram>
</mxfile>
